<svg width="236" height="51" viewBox="0 0 236 51" fill="none" xmlns="http://www.w3.org/2000/svg">
<path d="M0 40.1671V2.45312H13.9805V6.956H5.72199V18.2427H12.1027V22.7455H5.72199V35.6643H14.1968V40.1671H0Z" fill="#FFFEFC"/>
<path d="M18.1306 40.147V9.73785H22.4565L22.9481 12.9823V13.0118C23.3872 12.317 23.8559 11.7369 24.354 11.2716C24.8587 10.8062 25.3798 10.4359 25.9172 10.1606C26.4547 9.87877 27.0053 9.67886 27.5689 9.56088C28.1392 9.4429 28.7029 9.38391 29.26 9.38391C30.4529 9.38391 31.4623 9.67231 32.2881 10.2491C33.114 10.8193 33.7399 11.6812 34.1659 12.8348C34.6051 12.1728 35.0705 11.619 35.562 11.1733C36.0602 10.7341 36.5714 10.3802 37.0958 10.1115C37.6267 9.84927 38.1641 9.66247 38.7081 9.55105C39.2522 9.43962 39.806 9.38391 40.3697 9.38391C42.1328 9.38391 43.4961 10.0066 44.4596 11.2519C45.4297 12.4973 45.9147 14.362 45.9147 16.8461V40.147H40.3205V17.0526C40.3205 16.3906 40.2714 15.8302 40.1731 15.3714C40.0682 14.9125 39.9109 14.5455 39.7011 14.2702C39.498 13.9884 39.2358 13.7852 38.9146 13.6607C38.5869 13.5361 38.1969 13.4739 37.7447 13.4739C37.2269 13.4739 36.7091 13.6607 36.1913 14.0343C35.68 14.4079 35.2114 14.9257 34.7853 15.5876C34.7984 15.7253 34.805 15.8597 34.805 15.9907C34.805 16.1218 34.805 16.2529 34.805 16.384V40.147H29.2207V17.0526C29.2207 16.3906 29.1682 15.8302 29.0633 15.3714C28.9585 14.9125 28.8045 14.5455 28.6013 14.2702C28.3915 13.9884 28.1261 13.7852 27.8049 13.6607C27.4772 13.5361 27.0872 13.4739 26.6349 13.4739C26.1303 13.4739 25.6223 13.6574 25.111 14.0244C24.5933 14.3915 24.1279 14.8994 23.715 15.5483V40.147H18.1306Z" fill="#FFFEFC"/>
<path d="M55.2502 38.1693L55.4272 41.8954V50.0065H49.8428V9.76579H54.2179L54.7193 12.9709C54.9749 12.558 55.2732 12.1385 55.614 11.7124C55.9614 11.2864 56.3677 10.9063 56.8331 10.572C57.2985 10.2443 57.8195 9.97226 58.3963 9.75596C58.9797 9.53967 59.6318 9.43152 60.3528 9.43152C60.6609 9.43152 61.0345 9.46101 61.4736 9.52C61.9062 9.57899 62.3552 9.72647 62.8205 9.96243C63.2794 10.1984 63.7414 10.549 64.2068 11.0144C64.6722 11.4798 65.0851 12.1155 65.4456 12.9217C65.8061 13.7345 66.101 14.7439 66.3304 15.9499C66.5598 17.1559 66.6745 18.6208 66.6745 20.3446V29.5568C66.6745 31.274 66.5598 32.739 66.3304 33.9515C66.101 35.1575 65.8028 36.1636 65.4358 36.9698C65.0687 37.7826 64.6492 38.4249 64.1773 38.8968C63.7054 39.3687 63.2269 39.7227 62.7419 39.9586C62.2569 40.188 61.785 40.3388 61.3261 40.4109C60.8673 40.4764 60.4708 40.5092 60.1365 40.5092C58.9567 40.5092 57.9736 40.2798 57.187 39.821C56.4005 39.3622 55.7549 38.8116 55.2502 38.1693ZM55.4272 15.5959V33.9712C55.5452 34.2661 55.6894 34.5447 55.8598 34.8069C56.0302 35.0756 56.2301 35.3116 56.4595 35.5147C56.6889 35.7245 56.9445 35.8916 57.2264 36.0162C57.5148 36.1407 57.8523 36.203 58.239 36.203C58.6454 36.203 59.019 36.1243 59.3598 35.967C59.7007 35.8162 59.9956 35.5377 60.2447 35.1313C60.4937 34.7249 60.6871 34.1613 60.8247 33.4403C60.9689 32.7193 61.041 31.7918 61.041 30.6579V19.0173C61.041 17.8834 60.9689 16.9592 60.8247 16.2448C60.6871 15.5304 60.497 14.97 60.2545 14.5636C60.012 14.1507 59.7203 13.8688 59.3795 13.7181C59.0452 13.5739 58.6716 13.5018 58.2587 13.5018C57.5508 13.5018 56.9707 13.7115 56.5185 14.131C56.0728 14.5505 55.709 15.0388 55.4272 15.5959Z" fill="#FFFEFC"/>
<path d="M76.4816 40.4812C75.5377 40.4812 74.702 40.2912 73.9745 39.911C73.247 39.5374 72.6308 39.0262 72.1262 38.3773C71.628 37.7284 71.2511 36.9615 70.9955 36.0767C70.7333 35.1853 70.6023 34.2152 70.6023 33.1665C70.6023 31.9147 70.7563 30.8037 71.0643 29.8336C71.379 28.8636 71.8345 27.9886 72.4309 27.2086C73.0274 26.4286 73.7648 25.7175 74.643 25.0751C75.5279 24.4328 76.5536 23.8265 77.7203 23.2563C78.2775 22.9745 78.9067 22.6893 79.608 22.4009C80.3028 22.1126 80.9222 21.8668 81.4662 21.6636V17.6425C81.4662 17.0526 81.4465 16.5053 81.4072 16.0006C81.3613 15.4893 81.2532 15.0469 81.0827 14.6733C80.9123 14.2997 80.66 14.0048 80.3257 13.7885C79.9849 13.5787 79.5195 13.4739 78.9296 13.4739C78.5298 13.4739 78.1431 13.546 77.7695 13.6902C77.3959 13.8409 77.0649 14.0932 76.7765 14.4472C76.4881 14.7946 76.2587 15.2632 76.0883 15.8531C75.9244 16.443 75.8425 17.1738 75.8425 18.0455V19.363H71.5756C71.4445 18.7927 71.3462 18.2684 71.2806 17.7899C71.2151 17.3115 71.1823 16.8363 71.1823 16.3643C71.1823 15.2304 71.3757 14.2276 71.7624 13.3559C72.1556 12.4907 72.6997 11.7632 73.3944 11.1733C74.0958 10.5834 74.9314 10.1377 75.9015 9.83617C76.8781 9.53466 77.9465 9.38391 79.1066 9.38391C80.6207 9.38391 81.8791 9.55105 82.8819 9.88532C83.8847 10.213 84.6844 10.7079 85.2808 11.3699C85.8773 12.0319 86.2968 12.8643 86.5393 13.8671C86.7818 14.8699 86.903 16.0399 86.903 17.377V40.147H82.7541L82.351 37.5416C81.748 38.4068 80.9418 39.1147 79.9324 39.6652C78.9231 40.2092 77.7728 40.4812 76.4816 40.4812ZM78.9493 36.175C79.4212 36.175 79.8833 36.0538 80.3355 35.8112C80.7812 35.5687 81.1581 35.2705 81.4662 34.9166V25.3996C81.1712 25.5176 80.8402 25.6552 80.4732 25.8125C80.1061 25.9764 79.7096 26.1894 79.2836 26.4516C78.8837 26.7072 78.4938 27.012 78.1136 27.3659C77.7334 27.7133 77.3926 28.1328 77.0911 28.6243C76.7831 29.1094 76.5373 29.6567 76.3537 30.2662C76.1702 30.8758 76.0785 31.5574 76.0785 32.3112C76.0785 33.4713 76.3079 34.4053 76.7667 35.1132C77.2255 35.8211 77.953 36.175 78.9493 36.175Z" fill="#FFFEFC"/>
<path d="M93.1943 32.6053V13.7385H90.8347V9.76653H93.6859L94.8067 1.88159H98.7787V9.76653H103.645V13.7385H98.7787V33.0871C98.7787 33.7491 98.8409 34.2833 98.9655 34.6896C99.0965 35.096 99.2702 35.4106 99.4865 35.6335C99.7094 35.8629 99.9683 36.0136 100.263 36.0857C100.558 36.1644 100.866 36.2037 101.187 36.2037C101.731 36.2037 102.213 36.1349 102.633 35.9972C103.052 35.8661 103.455 35.6826 103.842 35.4467V38.5436C103.514 38.9369 103.164 39.2613 102.79 39.5169C102.416 39.766 102.03 39.9659 101.63 40.1167C101.23 40.274 100.827 40.3821 100.421 40.4411C100.008 40.5001 99.6012 40.5296 99.2014 40.5296C98.4214 40.5296 97.671 40.4247 96.95 40.215C96.229 40.0118 95.5899 39.6185 95.0328 39.0352C94.4691 38.4584 94.0234 37.6522 93.6957 36.6166C93.3614 35.5876 93.1943 34.2505 93.1943 32.6053Z" fill="#FFFEFC"/>
<path d="M107.769 40.1719V0H113.353V7.1574L113.068 12.3681C113.481 11.7979 113.926 11.3227 114.405 10.9426C114.883 10.569 115.375 10.2675 115.88 10.0381C116.391 9.80866 116.909 9.64807 117.433 9.55631C117.951 9.458 118.469 9.40884 118.986 9.40884C120.769 9.40884 122.142 10.0315 123.106 11.2768C124.069 12.5222 124.551 14.3869 124.551 16.871V40.1719H118.967V17.0775C118.967 15.7338 118.76 14.7998 118.347 14.2755C117.934 13.7577 117.331 13.4988 116.538 13.4988C115.975 13.4988 115.411 13.6856 114.847 14.0592C114.277 14.4328 113.779 14.9506 113.353 15.6126V40.1719H107.769Z" fill="#FFFEFC"/>
<path d="M129.811 46C130.65 46.118 131.423 46.0918 132.131 45.9214C132.839 45.7575 133.445 45.4396 133.95 44.9677C134.461 44.4958 134.867 43.8731 135.169 43.0997C135.47 42.3263 135.644 41.4021 135.69 40.3272L128.483 9.74109H134.166L137.361 26.5728L138.295 32.3734H138.472L139.111 26.5728L141.697 9.74109H147.193L140.792 41.2809C140.511 42.7359 140.153 44.0075 139.721 45.0955C139.282 46.1835 138.744 47.088 138.108 47.809C137.466 48.53 136.703 49.0707 135.818 49.4312C134.933 49.7983 133.904 49.9818 132.731 49.9818C131.774 49.9818 130.794 49.795 129.791 49.4214L129.811 46Z" fill="#FFFEFC"/>
<g clip-path="url(#clip0)">
<g clip-path="url(#clip1)">
<path d="M191.341 7L186.238 17.5746L183.659 22.8582L179.106 32.2685L169.401 12.2836L166.871 7H161.233L179.106 44L181.925 38.1048L197 7H191.341ZM151 7L168.894 44L171.713 38.2227L156.582 7H151ZM178.577 12.2836L176.125 17.3535L178.902 23.1014L179.021 22.8508L181.601 17.5672L186.71 7H171.114L173.672 12.2836H178.577Z" fill="#FFFEFC"/>
</g>
</g>
<path d="M206.396 40.4812C205.085 40.4812 203.925 40.2387 202.915 39.7537C201.906 39.2621 201.057 38.5018 200.369 37.4728C199.674 36.4437 199.15 35.123 198.796 33.5106C198.442 31.8983 198.265 29.9582 198.265 27.6903V21.9487C198.265 20.0217 198.409 18.37 198.697 16.9936C198.986 15.6171 199.359 14.4603 199.818 13.523C200.284 12.5923 200.821 11.8549 201.431 11.3109C202.047 10.7603 202.676 10.3441 203.318 10.0623C203.967 9.7739 204.613 9.59038 205.255 9.51172C205.897 9.42652 206.491 9.38391 207.035 9.38391C208.037 9.38391 209.001 9.53466 209.925 9.83617C210.856 10.1377 211.672 10.6522 212.373 11.3797C213.081 12.1138 213.645 13.0904 214.064 14.3095C214.484 15.5287 214.693 17.0526 214.693 18.8812C214.693 19.4973 214.677 20.1233 214.644 20.7591C214.605 21.3948 214.556 22.0175 214.497 22.6271C214.438 23.2366 214.359 23.8298 214.261 24.4066C214.169 24.9768 214.071 25.5045 213.966 25.9895H203.879V29.0864C203.879 30.4104 203.928 31.5247 204.026 32.4292C204.131 33.3337 204.305 34.0612 204.547 34.6118C204.79 35.1689 205.121 35.5687 205.54 35.8112C205.96 36.0538 206.487 36.175 207.123 36.175C207.457 36.175 207.788 36.1029 208.116 35.9587C208.437 35.8211 208.719 35.5917 208.962 35.2705C209.204 34.9428 209.401 34.5102 209.551 33.9727C209.696 33.4353 209.768 32.77 209.768 31.9769V31.0233H214.428V32.1932C214.428 35.0837 213.74 37.1877 212.363 38.5051C210.987 39.8225 208.998 40.4812 206.396 40.4812ZM203.879 22.2338H209.483C209.496 22.0765 209.512 21.8602 209.532 21.5849C209.545 21.3162 209.555 21.0344 209.561 20.7394C209.568 20.4445 209.571 20.1528 209.571 19.8644C209.571 19.576 209.571 19.3302 209.571 19.127C209.571 17.1214 209.335 15.6761 208.863 14.7913C208.391 13.913 207.693 13.4739 206.769 13.4739C206.284 13.4739 205.858 13.5886 205.491 13.818C205.117 14.0408 204.816 14.421 204.587 14.9584C204.351 15.4959 204.174 16.207 204.056 17.0919C203.938 17.9767 203.879 19.0746 203.879 20.3855V22.2338Z" fill="#FFFEFC"/>
<path d="M218.625 40.1719V0H224.21V8.11107L224.033 12.1224L224.062 12.1519C224.311 11.7979 224.6 11.4571 224.927 11.1294C225.262 10.8082 225.638 10.5198 226.058 10.2642C226.477 10.002 226.94 9.79882 227.444 9.65463C227.955 9.50388 228.513 9.4285 229.116 9.4285C229.424 9.4285 229.794 9.458 230.227 9.51699C230.666 9.57597 231.115 9.72345 231.574 9.95941C232.039 10.1954 232.504 10.546 232.97 11.0114C233.435 11.4768 233.848 12.1125 234.208 12.9187C234.569 13.7315 234.861 14.7408 235.083 15.9468C235.313 17.1529 235.427 18.6178 235.427 20.3416V29.5538C235.427 31.271 235.313 32.7359 235.083 33.9485C234.861 35.1545 234.562 36.1639 234.189 36.9766C233.822 37.7959 233.402 38.4415 232.93 38.9135C232.465 39.3854 231.986 39.7393 231.495 39.9753C231.01 40.2112 230.541 40.362 230.089 40.4275C229.63 40.4931 229.23 40.5258 228.889 40.5258C228.188 40.5258 227.552 40.4374 226.982 40.2604C226.418 40.0834 225.917 39.8442 225.478 39.5427C225.045 39.2412 224.665 38.9003 224.337 38.5202C224.003 38.1335 223.712 37.7402 223.462 37.3404L223 40.1719H218.625ZM224.21 15.5536V34.0075C224.328 34.2893 224.472 34.5613 224.642 34.8235C224.813 35.0922 225.009 35.3249 225.232 35.5216C225.448 35.7247 225.704 35.8886 225.999 36.0131C226.294 36.1377 226.625 36.1999 226.992 36.1999C227.405 36.1999 227.782 36.1213 228.123 35.964C228.457 35.8132 228.752 35.5347 229.007 35.1283C229.257 34.7219 229.45 34.1582 229.588 33.4373C229.732 32.7163 229.804 31.7888 229.804 30.6549V19.0143C229.804 17.8804 229.732 16.9562 229.588 16.2418C229.45 15.5274 229.26 14.967 229.017 14.5606C228.775 14.1477 228.483 13.8658 228.142 13.7151C227.801 13.5709 227.428 13.4988 227.021 13.4988C226.327 13.4988 225.753 13.6987 225.301 14.0985C224.855 14.5049 224.491 14.9899 224.21 15.5536Z" fill="#FFFEFC"/>
<defs>
<clipPath id="clip0">
<rect width="47.0604" height="36.202" fill="white" transform="translate(150.124 7.31177)"/>
</clipPath>
<clipPath id="clip1">
<rect width="64.1708" height="49.3644" fill="white" transform="translate(150.124 7.31177)"/>
</clipPath>
</defs>
</svg>
